# xmcd CD database file
#
# Track frame offsets:
#	150
#	11813
#	23995
#	39368
#	58395
#	72463
#	83683
#	104775
#	122430
#	140355
#	155600
#	167478
#
# Disc length: 2475 seconds
#
# Revision: 0
# Processed by: cddbd v1.5.2PL0 Copyright (c) Steve Scherf et al.
# Submitted via: CDex 1.70
#
DISCID=a209a90c
DTITLE=Various Artist - Dixieland's Greatest Hits
DYEAR=1990
DGENRE=Jazz
TTITLE0=Do You Know What It Means To Miss New Orleans (Last Straws)
TTITLE1=Hindustan (Last Straws)
TTITLE2=The Saints (Last Straws)
TTITLE3=We Danced At The Mardi Gras (Frog Joseph)
TTITLE4=Muskrat Ramble (Frog Joseph)
TTITLE5=If I Ever Cease To Love (Frog Joseph)
TTITLE6=Closer Walk (Blanche Thomas)
TTITLE7=Blues When It Rains (Blanche Thomas)
TTITLE8=Somebody Stole My Gal (Sweet Emma)
TTITLE9=Bill Bailey (Sweet Emma)
TTITLE10=S. Rampart St. Parade (Nickey)
TTITLE11=Tiger Rag (Danny Barker)
EXTD=YEAR: 1990
EXTT0=
EXTT1=
EXTT2=
EXTT3=
EXTT4=
EXTT5=
EXTT6=
EXTT7=
EXTT8=
EXTT9=
EXTT10=
EXTT11=
PLAYORDER=
